<?xml version="1.0" encoding="utf-8"?>
<!-- Generator: Adobe Illustrator 27.3.1, SVG Export Plug-In . SVG Version: 6.00 Build 0)  -->
<svg version="1.1" id="Layer_1" xmlns="http://www.w3.org/2000/svg" xmlns:xlink="http://www.w3.org/1999/xlink" x="0px" y="0px"
	 viewBox="0 0 70 59.7" style="enable-background:new 0 0 70 59.7;" xml:space="preserve">
<style type="text/css">
	.st0{fill:#FFFFFF;}
</style>
<g>
	<g>
		<g>
			<path class="st0" d="M-98.1,22c-3.3,0-5.9,2.6-5.9,5.9s2.6,5.9,5.9,5.9c3.3,0,5.9-2.6,5.9-5.9S-94.9,22-98.1,22z M-98.1,30.3
				c-1.3,0-2.4-1.1-2.4-2.4c0-1.3,1.1-2.4,2.4-2.4c1.3,0,2.4,1.1,2.4,2.4S-96.8,30.3-98.1,30.3z"/>
			<path class="st0" d="M-111.5,22c-3.3,0-5.9,2.6-5.9,5.9v11.3h3.5v-6c0.7,0.3,1.6,0.5,2.4,0.5c3.3,0,5.9-2.6,5.9-5.9
				C-105.6,24.6-108.3,22-111.5,22z M-111.5,30.3c-1.3,0-2.4-1.1-2.4-2.4c0-1.3,1.1-2.4,2.4-2.4c1.3,0,2.4,1.1,2.4,2.4
				S-110.2,30.3-111.5,30.3z"/>
			<rect x="-90.7" y="16.8" class="st0" width="3.5" height="17"/>
			<path class="st0" d="M-73.9,27.9c0-3.3-2.6-5.9-5.9-5.9s-5.9,2.6-5.9,5.9s2.6,5.9,5.9,5.9l0,0h5.9V27.9L-73.9,27.9z M-82.2,27.9
				c0-1.3,1.1-2.4,2.4-2.4s2.4,1.1,2.4,2.4s-1.1,2.4-2.4,2.4C-81.1,30.3-82.2,29.2-82.2,27.9z"/>
			<path class="st0" d="M-59.4,18.5c0,1.1-0.9,2.1-2.1,2.1c-1.1,0-2.1-0.9-2.1-2.1c0-1.2,0.9-2.1,2.1-2.1S-59.4,17.4-59.4,18.5z
				 M-59.7,22h-3.5v11.8h3.5V22z"/>
			<path class="st0" d="M-68.2,18.5c0,1.1-0.9,2.1-2.1,2.1c-1.1,0-2.1-0.9-2.1-2.1c0-1.2,0.9-2.1,2.1-2.1S-68.2,17.4-68.2,18.5z
				 M-68.4,22L-68.4,22C-68.5,22-68.5,22-68.4,22c-1.9,0-3.4,1.5-3.5,3.3c0,0.1,0,0.2,0,0.3v8.2h3.5v-8.4h3.5l0,0V22H-68.4z"/>
			<path class="st0" d="M-50.8,22L-50.8,22L-50.8,22c-0.1,0-0.1,0-0.2,0c-1.8,0.1-3.2,1.4-3.3,3.2c0,0.1,0,0.2,0,0.4l0,0l0,0v4.8
				h-3.5l0,0v3.5h3.4c0.1,0,0.1,0,0.2,0c1.9-0.1,3.3-1.6,3.3-3.4v-0.1v-5h3.5l0,0V22H-50.8z"/>
		</g>
		<g>
			<path class="st0" d="M-92.8,40.1c0,1.8-1.6,3.2-3.4,3.2c-1.4,0-2.4-1-2.4-2.4c0-1.8,1.6-3.2,3.4-3.2
				C-93.8,37.7-92.8,38.8-92.8,40.1z M-93.4,40.2c0-1-0.7-1.9-1.8-1.9c-1.4,0-2.7,1.2-2.7,2.6c0,1,0.7,1.9,1.8,1.9
				C-94.7,42.7-93.4,41.6-93.4,40.2z"/>
			<path class="st0" d="M-88.3,41.1l-0.4,2.1h-0.6l0.4-2.1c0.1-0.8-0.2-1.2-0.9-1.2c-0.4,0-1,0.2-1.3,0.6l-0.5,2.6h-0.6l0.7-3.7h0.6
				l-0.1,0.4c0.4-0.3,0.9-0.5,1.4-0.5C-88.6,39.5-88.1,40.1-88.3,41.1z"/>
			<path class="st0" d="M-85.8,37.6l-1,5.7h-0.6l1-5.7C-86.4,37.6-85.8,37.6-85.8,37.6z"/>
			<path class="st0" d="M-84.1,39.5l-0.7,3.7h-0.6l0.7-3.7H-84.1z M-84.6,38.1c0-0.2,0.2-0.4,0.4-0.4c0.2,0,0.4,0.2,0.4,0.4
				c0,0.2-0.2,0.4-0.4,0.4C-84.4,38.5-84.6,38.4-84.6,38.1z"/>
			<path class="st0" d="M-79.5,41.1l-0.4,2.1h-0.6l0.4-2.1c0.1-0.8-0.2-1.2-0.9-1.2c-0.4,0-1,0.2-1.3,0.6l-0.5,2.6h-0.6l0.7-3.7h0.6
				l-0.1,0.4c0.4-0.3,0.9-0.5,1.4-0.5C-79.9,39.5-79.3,40.1-79.5,41.1z"/>
			<path class="st0" d="M-78,41.6c0,0.7,0.3,1.2,1.1,1.2c0.5,0,0.9-0.2,1.1-0.5h0.7c-0.3,0.6-1.1,1-1.8,1c-1.2,0-1.8-0.9-1.6-2
				c0.2-1.1,1.2-2,2.3-2s1.7,0.8,1.4,2.1H-78V41.6z M-77.9,41.2h2.5c0.1-0.8-0.3-1.2-1-1.2C-77.1,40-77.7,40.5-77.9,41.2z"/>
			<path class="st0" d="M-67.1,39.3h-0.6c0-0.6-0.4-1.1-1.3-1.1c-0.9,0-1.5,0.5-1.5,1.1c0,0.4,0.3,0.7,0.9,0.8l0.7,0.1
				c1,0.2,1.4,0.6,1.4,1.3c0,1.1-0.9,1.8-2.3,1.8c-1.3,0-2.1-0.7-2-1.9h0.6c0,0.9,0.5,1.3,1.5,1.3s1.5-0.4,1.5-1.1
				c0-0.4-0.2-0.7-0.9-0.9l-0.8-0.2c-0.9-0.2-1.3-0.6-1.3-1.3c0-1.1,1-1.7,2.2-1.7C-67.9,37.7-67,38.2-67.1,39.3z"/>
			<path class="st0" d="M-65.4,41.9c-0.1,0.5,0.1,0.9,0.6,0.9c0.2,0,0.5-0.1,0.7-0.2v0.6c-0.3,0.1-0.6,0.1-0.8,0.1
				c-0.8,0-1.2-0.6-1.1-1.5l0.3-1.8h-1l0.1-0.5h1l0.2-1.4h0.6l-0.2,1.4h1.4l-0.1,0.5h-1.4L-65.4,41.9z"/>
			<path class="st0" d="M-59.4,41.1c0,1.2-1.1,2.2-2.3,2.2c-1,0-1.7-0.7-1.7-1.6c0-1.3,1.1-2.3,2.4-2.3
				C-60,39.5-59.4,40.2-59.4,41.1z M-60,41.2c0-0.7-0.5-1.2-1.1-1.2c-0.9,0-1.6,0.8-1.6,1.6c0,0.7,0.5,1.2,1.2,1.2
				C-60.7,42.8-60,42.1-60,41.2z"/>
			<path class="st0" d="M-55.9,39.5l-0.1,0.6c-0.6,0-1.2,0.3-1.6,0.8l-0.4,2.4h-0.6l0.7-3.7h0.5l-0.1,0.6
				C-57.1,39.7-56.5,39.5-55.9,39.5z"/>
			<path class="st0" d="M-55.1,41.6c0,0.7,0.3,1.2,1.1,1.2c0.5,0,0.9-0.2,1.1-0.5h0.7c-0.3,0.6-1.1,1-1.8,1c-1.2,0-1.8-0.9-1.6-2
				c0.2-1.1,1.2-2,2.3-2s1.7,0.8,1.4,2.1h-3.2V41.6z M-55,41.2h2.5c0.1-0.8-0.3-1.2-1-1.2C-54.3,40-54.8,40.5-55,41.2z"/>
		</g>
	</g>
</g>
<g>
	<g>
		<path class="st0" d="M7.8,37c0-0.1,0-0.2,0-0.3c0-0.1,0-0.1,0-0.2c0.2,0,0.4-0.1,0.5-0.1s0.2-0.2,0.2-0.3c0-0.1,0.1-0.3,0.1-0.6
			v-4.8c0-0.3,0-0.5-0.1-0.6c0-0.1-0.1-0.2-0.2-0.3s-0.3-0.1-0.5-0.1c0-0.1,0-0.1,0-0.2c0-0.1,0-0.2,0-0.3c0.3,0,0.6,0,0.9,0
			c0.3,0,0.5,0,0.7,0c0.1,0,0.3,0,0.4,0c0.2,0,0.4,0,0.6,0c0.2,0,0.3,0,0.4,0c0.6,0,1.1,0.1,1.5,0.3c0.4,0.2,0.6,0.5,0.8,0.8
			s0.2,0.7,0.2,1.1c0,0.4-0.1,0.8-0.3,1.2c-0.2,0.4-0.5,0.7-0.9,1s-0.9,0.4-1.4,0.4c-0.3,0-0.6,0-0.8-0.1c0-0.1,0-0.2,0-0.2
			c0-0.1,0-0.2,0-0.2c0.1,0,0.2,0,0.3,0.1c0.1,0,0.2,0,0.3,0c0.3,0,0.5,0,0.8-0.1c0.2-0.1,0.4-0.3,0.6-0.5s0.2-0.6,0.2-1.1
			c0-0.6-0.1-1.1-0.4-1.5c-0.3-0.4-0.8-0.6-1.5-0.6c-0.1,0-0.2,0-0.3,0c-0.1,0-0.3,0-0.5,0.1l0.2-0.2v5.6c0,0.3,0,0.6,0.1,0.7
			c0.1,0.2,0.2,0.3,0.3,0.4c0.2,0.1,0.3,0.1,0.6,0.1c0,0.1,0,0.1,0,0.2c0,0.1,0,0.2,0,0.3c-0.1,0-0.2,0-0.4,0s-0.3,0-0.5,0
			c-0.2,0-0.4,0-0.5,0c-0.2,0-0.4,0-0.6,0c-0.2,0-0.4,0-0.6,0C8,36.9,7.9,36.9,7.8,37z"/>
		<path class="st0" d="M19.4,37c-0.2-0.2-0.3-0.5-0.4-0.6c-0.1-0.2-0.2-0.3-0.3-0.5s-0.2-0.3-0.3-0.5c-0.1-0.3-0.3-0.5-0.4-0.7
			c-0.1-0.2-0.3-0.4-0.5-0.7s-0.4-0.5-0.7-0.7l0.3,0.1c-0.2,0-0.4,0-0.5,0s-0.3,0-0.5,0v-0.5c0.1,0,0.2,0,0.3,0c0.1,0,0.2,0,0.3,0
			c0.4,0,0.8-0.1,1.1-0.2s0.6-0.3,0.8-0.5c0.2-0.2,0.3-0.6,0.3-1c0-0.4-0.1-0.8-0.4-1.1s-0.8-0.4-1.4-0.4c-0.2,0-0.3,0-0.5,0
			c-0.1,0-0.3,0-0.4,0.1l0.1-0.1v5.8c0,0.2,0,0.4,0.1,0.6s0.1,0.2,0.2,0.3s0.3,0.1,0.4,0.1c0,0.1,0,0.1,0,0.2s0,0.2,0,0.3
			c-0.2,0-0.3,0-0.5,0c-0.2,0-0.3,0-0.5,0c-0.1,0-0.3,0-0.4,0c-0.2,0-0.4,0-0.7,0s-0.5,0-0.7,0c0-0.1,0-0.2,0-0.2c0-0.1,0-0.2,0-0.2
			c0.2,0,0.4-0.1,0.5-0.1s0.2-0.2,0.2-0.3c0-0.1,0.1-0.3,0.1-0.6v-4.8c0-0.3,0-0.5-0.1-0.6c0-0.1-0.1-0.2-0.2-0.3s-0.3-0.1-0.5-0.1
			c0-0.1,0-0.2,0-0.2c0-0.1,0-0.2,0-0.2c0.1,0,0.3,0,0.6,0s0.5,0,0.8,0c0.3,0,0.6,0,0.9,0c0.3,0,0.6,0,1,0c0.6,0,1,0.1,1.4,0.2
			s0.6,0.4,0.8,0.7c0.2,0.3,0.3,0.6,0.3,1c0,0.3-0.1,0.7-0.2,0.9c-0.2,0.3-0.4,0.5-0.7,0.7c-0.3,0.2-0.7,0.3-1.1,0.4l0.1-0.1
			c0.2,0.2,0.4,0.4,0.5,0.6c0.1,0.2,0.3,0.4,0.5,0.7c0.2,0.2,0.3,0.6,0.6,0.9c0.2,0.3,0.3,0.5,0.4,0.6c0.1,0.2,0.3,0.3,0.4,0.3
			c0.2,0.1,0.4,0.1,0.7,0.1c0,0.1,0,0.2,0,0.2c0,0.1,0,0.2,0,0.2c-0.3,0-0.6,0-0.9,0C19.9,36.9,19.6,37,19.4,37z"/>
		<path class="st0" d="M22.1,29.2c0.1,0,0.3,0,0.4,0s0.3,0,0.5,0c0.2,0,0.4,0,0.5,0c0.2,0,0.3,0,0.4,0v6.1c0,0.3,0,0.5,0.1,0.6
			c0.1,0.2,0.2,0.3,0.3,0.3c0.2,0.1,0.4,0.1,0.6,0.1v0.5c-0.2,0-0.5,0-0.7,0c-0.3,0-0.6,0-0.8,0s-0.5,0-0.8,0s-0.4,0-0.6,0
			c0-0.1,0-0.2,0-0.3c0-0.1,0-0.1,0-0.2c0.2,0,0.4-0.1,0.5-0.1s0.2-0.2,0.2-0.3c0-0.2,0.1-0.4,0.1-0.7v-4.7c0-0.3,0-0.5-0.1-0.6
			c0-0.1-0.1-0.2-0.2-0.3s-0.3-0.1-0.5-0.1c0-0.1,0-0.1,0-0.2C22.1,29.4,22.1,29.3,22.1,29.2z M27.2,29.2c0,0.2,0,0.4,0.1,0.6
			c0,0.2,0,0.4,0.1,0.6c0,0.2,0.1,0.4,0.1,0.6c-0.1,0.1-0.1,0.1-0.2,0.1s-0.2,0-0.3,0c0-0.2-0.1-0.5-0.2-0.7
			c-0.1-0.2-0.3-0.4-0.5-0.5s-0.6-0.2-1.1-0.2h-1.3l0.2-0.5c0.6,0,1.1,0,1.5,0s0.8,0,1.1,0C26.9,29.2,27.1,29.2,27.2,29.2z
			 M26.5,31.8c0,0.2,0,0.4,0,0.6s0,0.4,0,0.6s0,0.4,0,0.7c0,0.2,0,0.5,0,0.7c-0.1,0-0.2,0-0.3,0c-0.1,0-0.2,0-0.2,0
			c0-0.4-0.1-0.7-0.3-0.8c-0.2-0.1-0.5-0.2-1-0.2h-0.8v-0.5h0.8c0.5,0,0.8-0.1,1-0.2s0.3-0.4,0.3-0.7c0.1,0,0.2-0.1,0.3-0.1
			C26.3,31.8,26.4,31.8,26.5,31.8z M27.3,35c0.1,0,0.2,0.1,0.3,0.1c0.1,0,0.1,0.1,0.2,0.2c-0.1,0.3-0.2,0.5-0.2,0.8
			c-0.1,0.3-0.1,0.6-0.1,0.8c-0.1,0-0.3,0-0.6,0c-0.2,0-0.5,0-0.8,0c-0.3,0-0.6,0-1,0v-0.5h0.1c0.5,0,1-0.1,1.2-0.2
			c0.3-0.1,0.5-0.3,0.6-0.5C27.1,35.6,27.2,35.3,27.3,35z"/>
		<path class="st0" d="M31.4,37c-0.5,0-0.9-0.1-1.2-0.2c-0.4-0.1-0.7-0.3-1.1-0.5c0-0.3,0.1-0.6,0.1-0.9s0-0.5,0-0.7
			c0.1,0,0.2,0,0.3-0.1c0.1,0,0.2,0,0.3,0c0,0.4,0.1,0.7,0.2,1s0.3,0.5,0.6,0.6s0.6,0.2,1,0.2c0.5,0,0.9-0.1,1.1-0.3
			s0.3-0.5,0.3-0.8c0-0.3-0.1-0.6-0.3-0.8s-0.4-0.4-0.7-0.5c-0.3-0.2-0.6-0.3-0.9-0.4c-0.3-0.1-0.6-0.3-0.9-0.5
			c-0.3-0.2-0.5-0.4-0.7-0.7s-0.3-0.6-0.3-1.1c0-0.4,0.1-0.8,0.3-1.1s0.4-0.5,0.8-0.7c0.3-0.2,0.7-0.2,1.2-0.2c0.3,0,0.5,0,0.8,0.1
			c0.2,0,0.5,0.1,0.7,0.2c0.2,0.1,0.4,0.2,0.5,0.2c0,0.2,0,0.5,0,0.8c0,0.3,0,0.5,0.1,0.7c-0.1,0-0.2,0.1-0.3,0.1
			c-0.1,0-0.2,0-0.3,0c-0.1-0.4-0.2-0.8-0.3-1s-0.3-0.4-0.4-0.5c-0.2-0.1-0.4-0.1-0.6-0.1c-0.4,0-0.7,0.1-0.9,0.3
			c-0.2,0.2-0.3,0.5-0.3,0.8c0,0.3,0.1,0.6,0.3,0.8c0.2,0.2,0.4,0.4,0.7,0.6c0.3,0.2,0.6,0.3,0.9,0.5c0.3,0.1,0.6,0.3,0.9,0.5
			c0.3,0.2,0.5,0.4,0.7,0.7s0.3,0.6,0.3,1c0,0.4-0.1,0.7-0.3,1.1s-0.5,0.6-0.8,0.8C32.5,36.9,32,37,31.4,37z"/>
		<path class="st0" d="M38.5,37c-0.7,0-1.3-0.2-1.9-0.5s-1-0.8-1.3-1.4c-0.3-0.6-0.5-1.3-0.5-2.1c0-0.6,0.1-1.2,0.3-1.7
			c0.2-0.5,0.5-0.9,0.9-1.2c0.4-0.3,0.8-0.6,1.2-0.7c0.4-0.2,0.9-0.2,1.4-0.2c0.5,0,0.9,0,1.3,0.1c0.4,0.1,0.8,0.2,1.2,0.4
			c-0.1,0.3-0.1,0.5-0.1,0.8c0,0.3,0,0.6,0,0.9c-0.1,0-0.2,0.1-0.3,0.1c-0.1,0-0.2,0-0.3,0c0-0.5-0.1-0.9-0.2-1.2
			c-0.1-0.3-0.3-0.5-0.6-0.6s-0.5-0.2-0.9-0.2c-0.5,0-0.9,0.1-1.2,0.3c-0.3,0.2-0.6,0.4-0.8,0.7c-0.2,0.3-0.4,0.6-0.5,1
			c-0.1,0.4-0.2,0.8-0.2,1.2c0,0.7,0.1,1.3,0.3,1.8c0.2,0.5,0.6,1,1,1.3s0.9,0.5,1.6,0.5c0.4,0,0.7-0.1,1.1-0.2
			c0.4-0.1,0.7-0.3,1-0.5c0,0,0.1,0.1,0.1,0.2c0,0.1,0.1,0.1,0.1,0.2c-0.4,0.3-0.9,0.6-1.3,0.8C39.6,36.9,39.1,37,38.5,37z"/>
		<path class="st0" d="M45.8,37c-0.7,0-1.4-0.2-2-0.5c-0.6-0.3-1-0.8-1.3-1.4c-0.3-0.6-0.5-1.3-0.5-2c0-0.6,0.1-1.1,0.3-1.6
			s0.5-0.9,0.8-1.2c0.3-0.3,0.7-0.6,1.2-0.8s0.9-0.3,1.5-0.3c0.7,0,1.4,0.2,1.9,0.5c0.6,0.3,1,0.8,1.3,1.4s0.5,1.3,0.5,2
			c0,0.6-0.1,1.1-0.3,1.6c-0.2,0.5-0.4,0.9-0.8,1.3s-0.7,0.6-1.2,0.8C46.9,36.9,46.4,37,45.8,37z M46.1,36.5c0.5,0,0.9-0.1,1.3-0.4
			c0.4-0.3,0.6-0.6,0.8-1.1c0.2-0.5,0.3-1,0.3-1.6c0-0.7-0.1-1.3-0.4-1.9c-0.2-0.6-0.6-1-1-1.3c-0.4-0.3-0.9-0.5-1.4-0.5
			c-0.4,0-0.8,0.1-1.2,0.4c-0.4,0.3-0.6,0.6-0.8,1.1c-0.2,0.5-0.3,1-0.3,1.6c0,0.5,0.1,0.9,0.2,1.4s0.3,0.8,0.5,1.2
			c0.2,0.3,0.5,0.6,0.9,0.8C45.2,36.4,45.6,36.5,46.1,36.5z"/>
		<path class="st0" d="M52.1,29.8c-0.4,0-0.6,0.1-0.8,0.2c-0.2,0.1-0.3,0.3-0.4,0.5c-0.1,0.2-0.1,0.4-0.2,0.7c-0.1,0-0.2,0-0.3,0
			c-0.1,0-0.2,0-0.3-0.1c0.1-0.3,0.1-0.6,0.1-1s0-0.6,0-0.9c0.2,0,0.5,0,0.8,0s0.6,0,1,0s0.7,0,1.1,0c0.4,0,0.8,0,1.1,0s0.7,0,1,0
			s0.6,0,0.8,0c0,0.3,0,0.6,0,0.8c0,0.3,0,0.6,0.1,1c-0.1,0-0.2,0.1-0.3,0.1s-0.2,0-0.3,0c0-0.4-0.1-0.8-0.3-1
			c-0.2-0.2-0.5-0.4-1-0.4H52.1z M52.7,29.6h1.1v5.9c0,0.2,0,0.4,0.1,0.6s0.1,0.2,0.3,0.3c0.1,0.1,0.3,0.1,0.6,0.1
			c0,0.1,0,0.1,0,0.2c0,0.1,0,0.2,0,0.3c-0.2,0-0.5,0-0.7,0s-0.5,0-0.7,0c-0.2,0-0.3,0-0.5,0c-0.2,0-0.3,0-0.5,0s-0.3,0-0.5,0
			c0-0.1,0-0.2,0-0.3c0-0.1,0-0.1,0-0.2c0.2,0,0.4-0.1,0.6-0.1s0.2-0.2,0.3-0.3s0.1-0.3,0.1-0.6V29.6z"/>
		<path class="st0" d="M58.8,29.8c-0.4,0-0.6,0.1-0.8,0.2c-0.2,0.1-0.3,0.3-0.4,0.5s-0.1,0.4-0.2,0.7c-0.1,0-0.2,0-0.3,0
			c-0.1,0-0.2,0-0.3-0.1c0.1-0.3,0.1-0.6,0.1-1s0-0.6,0-0.9c0.2,0,0.5,0,0.8,0c0.3,0,0.6,0,1,0s0.7,0,1.1,0s0.8,0,1.1,0s0.7,0,1,0
			c0.3,0,0.6,0,0.8,0c0,0.3,0,0.6,0,0.8c0,0.3,0,0.6,0.1,1c-0.1,0-0.2,0.1-0.3,0.1c-0.1,0-0.2,0-0.3,0c0-0.4-0.1-0.8-0.3-1
			c-0.2-0.2-0.5-0.4-1-0.4H58.8z M59.3,29.6h1.1v5.9c0,0.2,0,0.4,0.1,0.6c0,0.1,0.1,0.2,0.3,0.3c0.1,0.1,0.3,0.1,0.6,0.1
			c0,0.1,0,0.1,0,0.2c0,0.1,0,0.2,0,0.3c-0.2,0-0.5,0-0.7,0s-0.5,0-0.7,0c-0.2,0-0.3,0-0.5,0c-0.2,0-0.3,0-0.5,0s-0.3,0-0.5,0
			c0-0.1,0-0.2,0-0.3s0-0.1,0-0.2c0.2,0,0.4-0.1,0.6-0.1c0.1-0.1,0.2-0.2,0.3-0.3c0-0.1,0.1-0.3,0.1-0.6V29.6z"/>
	</g>
	<g>
		<path class="st0" d="M20.4,41.9c0.1,0,0.2,0,0.3,0c0.1,0,0.1-0.1,0.1-0.1c0-0.1,0.1-0.1,0.1-0.2c0,0,0.1,0,0.1,0s0,0,0.1,0
			c0,0.1,0,0.1-0.1,0.2c0,0.1,0,0.1,0,0.2c0,0-0.1,0-0.1,0s-0.1,0-0.2,0s-0.1,0-0.2,0c-0.1,0-0.1,0-0.2,0s-0.1,0-0.2,0s-0.1,0-0.2,0
			s-0.1,0-0.1,0c0,0,0-0.1,0-0.1c0,0,0,0,0-0.1c0.1,0,0.1,0,0.1,0c0,0,0,0,0.1-0.1c0,0,0-0.1,0-0.2v-1.2c0-0.1,0-0.1,0-0.1
			c0,0,0-0.1-0.1-0.1c0,0-0.1,0-0.1,0c0,0,0,0,0-0.1c0,0,0,0,0-0.1c0,0,0.1,0,0.1,0s0.1,0,0.1,0c0,0,0.1,0,0.1,0c0,0,0.1,0,0.1,0
			c0,0,0.1,0,0.1,0c0,0,0.1,0,0.1,0c0,0,0,0,0,0.1c0,0,0,0,0,0.1c0,0-0.1,0-0.1,0c0,0,0,0-0.1,0.1c0,0,0,0.1,0,0.2v1.2
			c0,0.1,0,0.1,0,0.2s0,0.1,0.1,0.1C20.3,41.9,20.3,41.9,20.4,41.9L20.4,41.9z"/>
		<path class="st0" d="M23.6,41.3c0,0.2,0,0.3,0,0.4c0,0.1-0.1,0.2-0.1,0.2c-0.1,0.1-0.1,0.1-0.2,0.1c-0.1,0-0.2,0-0.3,0
			c-0.2,0-0.3,0-0.4-0.1c-0.1-0.1-0.2-0.1-0.2-0.2c0-0.1-0.1-0.2-0.1-0.4v-0.9c0-0.1,0-0.1,0-0.2c0,0,0-0.1,0-0.1s-0.1,0-0.1,0
			c0,0,0,0,0-0.1c0,0,0,0,0-0.1c0,0,0.1,0,0.2,0s0.1,0,0.2,0c0,0,0.1,0,0.1,0c0,0,0.1,0,0.1,0c0,0,0.1,0,0.1,0s0.1,0,0.1,0
			c0,0,0,0,0,0.1c0,0,0,0,0,0.1c-0.1,0-0.1,0-0.1,0s0,0-0.1,0.1c0,0,0,0.1,0,0.2v0.9c0,0.1,0,0.2,0,0.3c0,0.1,0.1,0.2,0.1,0.2
			c0.1,0.1,0.2,0.1,0.3,0.1c0,0,0.1,0,0.2,0c0.1,0,0.1,0,0.1-0.1c0,0,0.1-0.1,0.1-0.1c0,0,0-0.1,0-0.2c0-0.1,0-0.1,0-0.2v-0.7
			c0-0.1,0-0.2,0-0.2c0-0.1,0-0.1-0.1-0.1c0,0-0.1,0-0.1,0c0,0,0-0.1,0-0.1c0,0,0,0,0-0.1c0,0,0,0,0.1,0s0.1,0,0.1,0
			c0,0,0.1,0,0.1,0c0,0,0.1,0,0.1,0s0.1,0,0.1,0c0,0,0,0,0,0c0,0,0,0,0,0.1c0,0-0.1,0-0.1,0c0,0,0,0.1-0.1,0.1c0,0.1,0,0.1,0,0.2
			V41.3z"/>
		<path class="st0" d="M24.9,42.1C24.9,42.1,24.9,42,24.9,42.1c0-0.1,0-0.1,0-0.1c0,0,0.1,0,0.2-0.1c0.1,0,0.1-0.1,0.2-0.2l0.4-0.5
			l0.1,0.1l-0.3,0.4c0,0.1-0.1,0.1-0.1,0.2c0,0,0,0.1,0,0.1c0,0,0.1,0,0.1,0.1c0,0,0,0,0,0.1c0,0,0,0,0,0.1c0,0-0.1,0-0.2,0
			c-0.1,0-0.1,0-0.2,0c0,0-0.1,0-0.1,0C25,42.1,25,42.1,24.9,42.1C24.9,42.1,24.9,42.1,24.9,42.1z M26.6,42.1c0,0-0.1,0-0.1,0
			s-0.1,0-0.1,0s-0.1,0-0.1,0c0,0-0.1,0-0.1,0c0,0-0.1,0-0.1,0s-0.1,0-0.1,0c0,0,0,0,0-0.1c0,0,0,0,0-0.1c0,0,0.1,0,0.1,0
			c0,0,0,0,0-0.1s0-0.1-0.1-0.2c-0.1-0.1-0.1-0.2-0.2-0.4c-0.1-0.1-0.1-0.2-0.2-0.4c-0.1-0.1-0.2-0.2-0.2-0.4
			c-0.1-0.1-0.1-0.1-0.1-0.2c0,0-0.1-0.1-0.1-0.1c0,0,0,0-0.1,0c0,0,0,0-0.1,0c0,0,0,0,0-0.1c0,0,0,0,0-0.1c0,0,0.1,0,0.1,0
			s0.1,0,0.1,0s0.1,0,0.1,0c0.1,0,0.1,0,0.2,0s0.1,0,0.2,0c0,0,0,0,0,0.1c0,0,0,0,0,0.1c-0.1,0-0.1,0-0.1,0c0,0,0,0.1,0,0.1
			c0,0,0,0.1,0.1,0.2c0.1,0.1,0.2,0.2,0.2,0.4c0.1,0.1,0.1,0.2,0.2,0.4c0.1,0.1,0.1,0.2,0.2,0.4c0,0.1,0.1,0.1,0.1,0.2
			c0,0,0.1,0.1,0.1,0.1c0,0,0,0,0.1,0.1c0,0,0,0,0.1,0C26.6,42,26.6,42,26.6,42.1C26.6,42,26.6,42.1,26.6,42.1z M25.8,41.1L25.7,41
			l0.3-0.4c0.1-0.1,0.1-0.2,0.1-0.3c0,0-0.1-0.1-0.1-0.1c0,0,0,0,0-0.1c0,0,0,0,0-0.1c0,0,0.1,0,0.1,0c0,0,0.1,0,0.1,0
			c0,0,0.1,0,0.1,0c0,0,0.1,0,0.1,0c0,0,0.1,0,0.1,0c0,0,0.1,0,0.1,0c0,0,0,0,0,0.1c0,0,0,0,0,0.1c0,0-0.1,0-0.1,0
			c0,0-0.1,0-0.1,0.1c0,0-0.1,0.1-0.1,0.2L25.8,41.1z"/>
		<path class="st0" d="M29.2,41.3c0,0.2,0,0.3,0,0.4c0,0.1-0.1,0.2-0.1,0.2C29,42,28.9,42,28.8,42.1c-0.1,0-0.2,0-0.3,0
			c-0.2,0-0.3,0-0.4-0.1C28,42,28,41.9,27.9,41.8c0-0.1-0.1-0.2-0.1-0.4v-0.9c0-0.1,0-0.1,0-0.2c0,0,0-0.1,0-0.1s-0.1,0-0.1,0
			c0,0,0,0,0-0.1c0,0,0,0,0-0.1c0,0,0.1,0,0.2,0s0.1,0,0.2,0c0,0,0.1,0,0.1,0c0,0,0.1,0,0.1,0c0,0,0.1,0,0.1,0s0.1,0,0.1,0
			c0,0,0,0,0,0.1c0,0,0,0,0,0.1c-0.1,0-0.1,0-0.1,0s0,0-0.1,0.1c0,0,0,0.1,0,0.2v0.9c0,0.1,0,0.2,0,0.3c0,0.1,0.1,0.2,0.1,0.2
			c0.1,0.1,0.2,0.1,0.3,0.1c0,0,0.1,0,0.2,0c0.1,0,0.1,0,0.1-0.1c0,0,0.1-0.1,0.1-0.1c0,0,0-0.1,0-0.2c0-0.1,0-0.1,0-0.2v-0.7
			c0-0.1,0-0.2,0-0.2c0-0.1,0-0.1-0.1-0.1c0,0-0.1,0-0.1,0c0,0,0-0.1,0-0.1c0,0,0,0,0-0.1c0,0,0,0,0.1,0s0.1,0,0.1,0
			c0,0,0.1,0,0.1,0c0,0,0.1,0,0.1,0s0.1,0,0.1,0c0,0,0,0,0,0c0,0,0,0,0,0.1c0,0-0.1,0-0.1,0c0,0,0,0.1-0.1,0.1c0,0.1,0,0.1,0,0.2
			V41.3z"/>
		<path class="st0" d="M31.9,42.1c-0.1-0.1-0.1-0.1-0.2-0.2c0-0.1-0.1-0.1-0.2-0.2c0-0.1-0.1-0.1-0.1-0.2c0-0.1-0.1-0.1-0.1-0.2
			c0-0.1-0.1-0.1-0.2-0.2l0.1,0c0,0-0.1,0-0.1,0s-0.1,0-0.1,0v-0.1c0,0,0.1,0,0.1,0s0,0,0.1,0c0.1,0,0.2,0,0.3,0
			c0.1,0,0.2-0.1,0.2-0.1c0-0.1,0.1-0.1,0.1-0.2c0-0.1,0-0.2-0.1-0.3s-0.2-0.1-0.4-0.1c0,0-0.1,0-0.1,0c0,0-0.1,0-0.1,0l0-0.1v1.5
			c0,0.1,0,0.1,0,0.1c0,0,0,0.1,0.1,0.1c0,0,0.1,0,0.1,0c0,0,0,0,0,0.1c0,0,0,0,0,0.1c0,0-0.1,0-0.1,0s-0.1,0-0.1,0s-0.1,0-0.1,0
			c0,0-0.1,0-0.2,0s-0.1,0-0.2,0c0,0,0,0,0-0.1c0,0,0,0,0-0.1c0.1,0,0.1,0,0.1,0c0,0,0,0,0.1-0.1c0,0,0-0.1,0-0.1v-1.2
			c0-0.1,0-0.1,0-0.2c0,0,0-0.1-0.1-0.1c0,0-0.1,0-0.1,0c0,0,0,0,0-0.1c0,0,0,0,0-0.1c0,0,0,0,0.1,0s0.1,0,0.1,0s0.1,0,0.1,0
			c0.1,0,0.1,0,0.2,0s0.1,0,0.2,0s0.1,0,0.1,0c0.2,0,0.3,0,0.4,0.1s0.2,0.1,0.2,0.2s0.1,0.2,0.1,0.2c0,0.1,0,0.2-0.1,0.2
			c0,0.1-0.1,0.1-0.2,0.2c-0.1,0-0.2,0.1-0.3,0.1l0,0c0,0,0.1,0.1,0.1,0.1c0,0,0.1,0.1,0.1,0.1c0,0,0.1,0.1,0.1,0.1
			c0,0,0.1,0.1,0.1,0.2c0.1,0.1,0.1,0.1,0.2,0.2c0,0.1,0.1,0.1,0.2,0.1c0.1,0,0.1,0,0.2,0c0,0,0,0,0,0.1c0,0,0,0,0,0.1
			c-0.1,0-0.1,0-0.2,0C32,42.1,31.9,42.1,31.9,42.1z"/>
		<path class="st0" d="M34,41.4h-0.2l-0.5-1c0-0.1-0.1-0.1-0.1-0.1c0,0-0.1,0-0.1,0c0,0,0,0,0-0.1c0,0,0,0,0-0.1c0,0,0.1,0,0.1,0
			c0,0,0.1,0,0.1,0c0,0,0.1,0,0.1,0c0,0,0.1,0,0.1,0c0,0,0.1,0,0.1,0s0.1,0,0.1,0c0,0,0,0,0,0.1s0,0,0,0.1c-0.1,0-0.1,0-0.1,0.1
			c0,0,0,0.1,0,0.2c0.1,0.1,0.1,0.2,0.2,0.3c0.1,0.1,0.1,0.3,0.2,0.4h0c0.1-0.1,0.1-0.3,0.2-0.4s0.1-0.2,0.1-0.3
			c0.1-0.1,0.1-0.2,0.1-0.2c0,0-0.1-0.1-0.1-0.1c0,0,0,0,0-0.1c0,0,0,0,0-0.1c0,0,0.1,0,0.1,0c0.1,0,0.1,0,0.1,0c0,0,0.1,0,0.1,0
			s0.1,0,0.1,0c0,0,0,0,0,0.1c0,0,0,0,0,0.1c-0.1,0-0.1,0-0.1,0.1s-0.1,0.1-0.1,0.2L34,41.4z M34.1,41.3v0.3c0,0.1,0,0.2,0,0.2
			c0,0,0,0.1,0.1,0.1c0,0,0.1,0,0.1,0c0,0,0,0,0,0.1c0,0,0,0,0,0.1c-0.1,0-0.1,0-0.2,0s-0.1,0-0.2,0c0,0-0.1,0-0.1,0s-0.1,0-0.1,0
			s-0.1,0-0.1,0c0,0,0,0,0-0.1c0,0,0,0,0-0.1c0.1,0,0.1,0,0.2,0c0,0,0.1,0,0.1-0.1c0,0,0-0.1,0-0.2v-0.3H34.1z"/>
		<path class="st0" d="M37.2,42.1C37.2,42.1,37.2,42,37.2,42.1c0-0.1,0-0.1,0-0.1c0.1,0,0.1,0,0.1,0c0,0,0,0,0.1-0.1
			c0,0,0-0.1,0-0.1v-1.2c0-0.1,0-0.1,0-0.1c0,0,0-0.1-0.1-0.1c0,0-0.1,0-0.1,0c0,0,0,0,0-0.1c0,0,0,0,0-0.1c0,0,0.1,0,0.1,0
			s0.1,0,0.1,0c0,0,0.1,0,0.1,0c0,0,0.1,0,0.1,0s0.1,0,0.1,0s0.1,0,0.1,0c0,0,0,0,0,0.1c0,0,0,0,0,0.1c0,0-0.1,0-0.1,0
			c0,0-0.1,0-0.1,0.1c0,0,0,0.1,0,0.1v1.2c0,0.1,0,0.1,0,0.1c0,0,0,0.1,0.1,0.1c0,0,0.1,0,0.1,0c0,0,0,0,0,0.1c0,0,0,0,0,0.1
			c-0.1,0-0.1,0-0.2,0s-0.1,0-0.2,0s-0.1,0-0.2,0C37.3,42.1,37.2,42.1,37.2,42.1z M37.7,41.2V41h0.9v0.1c-0.1,0-0.1,0-0.2,0
			c-0.1,0-0.2,0-0.2,0c-0.1,0-0.2,0-0.2,0S37.7,41.2,37.7,41.2z M38.3,42.1C38.3,42.1,38.3,42,38.3,42.1c0-0.1,0-0.1,0-0.1
			c0.1,0,0.1,0,0.1,0c0,0,0,0,0.1-0.1c0,0,0-0.1,0-0.1v-1.2c0-0.1,0-0.1,0-0.1c0,0,0-0.1-0.1-0.1c0,0-0.1,0-0.1,0c0,0,0,0,0-0.1
			c0,0,0,0,0-0.1c0,0,0.1,0,0.1,0s0.1,0,0.1,0s0.1,0,0.1,0c0,0,0.1,0,0.1,0c0,0,0.1,0,0.1,0c0,0,0.1,0,0.1,0c0,0,0,0,0,0.1
			c0,0,0,0,0,0.1c0,0-0.1,0-0.1,0c0,0-0.1,0-0.1,0.1c0,0,0,0.1,0,0.1v1.2c0,0.1,0,0.1,0,0.1c0,0,0,0.1,0.1,0.1c0,0,0.1,0,0.1,0
			c0,0,0,0,0,0.1c0,0,0,0,0,0.1c-0.1,0-0.1,0-0.2,0c-0.1,0-0.1,0-0.2,0s-0.1,0-0.2,0C38.4,42.1,38.4,42.1,38.3,42.1z"/>
		<path class="st0" d="M41.1,42.1c-0.2,0-0.4,0-0.5-0.1s-0.3-0.2-0.3-0.4c-0.1-0.2-0.1-0.3-0.1-0.5c0-0.1,0-0.3,0.1-0.4
			s0.1-0.2,0.2-0.3s0.2-0.2,0.3-0.2c0.1,0,0.2-0.1,0.4-0.1c0.2,0,0.3,0,0.5,0.1s0.3,0.2,0.3,0.3s0.1,0.3,0.1,0.5
			c0,0.1,0,0.3-0.1,0.4c0,0.1-0.1,0.2-0.2,0.3S41.6,42,41.5,42C41.4,42.1,41.2,42.1,41.1,42.1z M41.2,42c0.1,0,0.2,0,0.3-0.1
			c0.1-0.1,0.2-0.2,0.2-0.3s0.1-0.3,0.1-0.4c0-0.2,0-0.3-0.1-0.5c-0.1-0.1-0.1-0.3-0.3-0.3c-0.1-0.1-0.2-0.1-0.4-0.1
			c-0.1,0-0.2,0-0.3,0.1c-0.1,0.1-0.2,0.2-0.2,0.3c-0.1,0.1-0.1,0.3-0.1,0.4c0,0.1,0,0.2,0,0.3c0,0.1,0.1,0.2,0.1,0.3
			c0.1,0.1,0.1,0.2,0.2,0.2S41,42,41.2,42z"/>
		<path class="st0" d="M43.5,40.3c-0.1,0-0.2,0-0.2,0c0,0-0.1,0.1-0.1,0.1c0,0.1,0,0.1,0,0.2c0,0,0,0-0.1,0c0,0,0,0-0.1,0
			c0-0.1,0-0.2,0-0.2s0-0.2,0-0.2c0.1,0,0.1,0,0.2,0c0.1,0,0.2,0,0.3,0s0.2,0,0.3,0s0.2,0,0.3,0s0.2,0,0.3,0s0.1,0,0.2,0
			c0,0.1,0,0.1,0,0.2s0,0.2,0,0.2c0,0,0,0-0.1,0c0,0,0,0-0.1,0c0-0.1,0-0.2-0.1-0.3c-0.1-0.1-0.1-0.1-0.2-0.1H43.5z M43.7,40.2H44
			v1.5c0,0.1,0,0.1,0,0.1c0,0,0,0.1,0.1,0.1c0,0,0.1,0,0.1,0c0,0,0,0,0,0.1c0,0,0,0,0,0.1c-0.1,0-0.1,0-0.2,0c-0.1,0-0.1,0-0.2,0
			c0,0-0.1,0-0.1,0s-0.1,0-0.1,0s-0.1,0-0.1,0c0,0,0-0.1,0-0.1c0,0,0,0,0-0.1c0.1,0,0.1,0,0.1,0c0,0,0.1,0,0.1-0.1c0,0,0-0.1,0-0.1
			V40.2z"/>
		<path class="st0" d="M45.6,40.1c0,0,0.1,0,0.1,0s0.1,0,0.1,0s0.1,0,0.1,0s0.1,0,0.1,0v1.5c0,0.1,0,0.1,0,0.2c0,0,0,0.1,0.1,0.1
			c0,0,0.1,0,0.2,0v0.1c-0.1,0-0.1,0-0.2,0c-0.1,0-0.1,0-0.2,0c-0.1,0-0.1,0-0.2,0c-0.1,0-0.1,0-0.1,0c0,0,0-0.1,0-0.1
			c0,0,0,0,0-0.1c0.1,0,0.1,0,0.1,0c0,0,0,0,0.1-0.1c0,0,0-0.1,0-0.2v-1.2c0-0.1,0-0.1,0-0.1c0,0,0-0.1-0.1-0.1c0,0-0.1,0-0.1,0
			C45.6,40.2,45.6,40.2,45.6,40.1C45.6,40.2,45.6,40.2,45.6,40.1z M46.9,40.1c0,0,0,0.1,0,0.1c0,0.1,0,0.1,0,0.2s0,0.1,0,0.1
			c0,0,0,0-0.1,0c0,0,0,0-0.1,0c0-0.1,0-0.1,0-0.2c0-0.1-0.1-0.1-0.1-0.1c-0.1,0-0.2-0.1-0.3-0.1H46l0.1-0.1c0.2,0,0.3,0,0.4,0
			c0.1,0,0.2,0,0.3,0C46.8,40.1,46.9,40.1,46.9,40.1z M46.7,40.8c0,0,0,0.1,0,0.2c0,0.1,0,0.1,0,0.2s0,0.1,0,0.2c0,0.1,0,0.1,0,0.2
			c0,0,0,0-0.1,0c0,0,0,0-0.1,0c0-0.1,0-0.2-0.1-0.2s-0.1-0.1-0.2-0.1h-0.2V41h0.2c0.1,0,0.2,0,0.2,0c0,0,0.1-0.1,0.1-0.2
			C46.6,40.8,46.6,40.8,46.7,40.8C46.7,40.8,46.7,40.8,46.7,40.8z M46.9,41.6C46.9,41.6,47,41.6,46.9,41.6c0.1,0,0.1,0.1,0.1,0.1
			c0,0.1,0,0.1-0.1,0.2c0,0.1,0,0.1,0,0.2c0,0-0.1,0-0.1,0s-0.1,0-0.2,0s-0.2,0-0.3,0v-0.1h0c0.1,0,0.2,0,0.3,0
			c0.1,0,0.1-0.1,0.2-0.1C46.9,41.7,46.9,41.7,46.9,41.6z"/>
		<path class="st0" d="M48.9,41.9c0.1,0,0.2,0,0.3,0c0.1,0,0.1-0.1,0.1-0.1s0.1-0.1,0.1-0.2c0,0,0.1,0,0.1,0c0,0,0,0,0.1,0
			c0,0.1,0,0.1-0.1,0.2c0,0.1,0,0.1,0,0.2c0,0-0.1,0-0.1,0c-0.1,0-0.1,0-0.2,0c-0.1,0-0.1,0-0.2,0c-0.1,0-0.1,0-0.2,0
			c-0.1,0-0.1,0-0.2,0c-0.1,0-0.1,0-0.2,0c-0.1,0-0.1,0-0.1,0c0,0,0-0.1,0-0.1c0,0,0,0,0-0.1c0.1,0,0.1,0,0.1,0c0,0,0,0,0.1-0.1
			c0,0,0-0.1,0-0.2v-1.2c0-0.1,0-0.1,0-0.1c0,0,0-0.1-0.1-0.1c0,0-0.1,0-0.1,0c0,0,0,0,0-0.1c0,0,0,0,0-0.1c0,0,0.1,0,0.1,0
			s0.1,0,0.1,0s0.1,0,0.1,0c0,0,0.1,0,0.1,0s0.1,0,0.1,0s0.1,0,0.1,0c0,0,0,0,0,0.1c0,0,0,0,0,0.1c0,0-0.1,0-0.1,0c0,0,0,0-0.1,0.1
			c0,0,0,0.1,0,0.2v1.2c0,0.1,0,0.1,0,0.2c0,0,0,0.1,0.1,0.1C48.8,41.9,48.9,41.9,48.9,41.9L48.9,41.9z"/>
	</g>
	<g>
		<rect x="8.8" y="24.2" class="st0" width="52.5" height="0.3"/>
		<rect x="5.2" y="25" class="st0" width="59.5" height="0.3"/>
	</g>
	<g>
		<rect x="13.8" y="46.2" class="st0" width="42.3" height="0.3"/>
		<rect x="11" y="45.3" class="st0" width="48" height="0.3"/>
	</g>
	<g>
		<path class="st0" d="M41.1,50.2c0.3-0.1,0.4-0.3,0.4-0.6c-0.1-0.3-0.3-0.4-0.6-0.4c-0.3,0.1-0.4,0.3-0.4,0.6
			C40.5,50.1,40.8,50.3,41.1,50.2z"/>
		<path class="st0" d="M28.5,49.6c-0.1,0.3,0.1,0.6,0.4,0.6c0.3,0.1,0.6-0.1,0.6-0.4c0.1-0.3-0.1-0.6-0.4-0.6
			C28.9,49.1,28.6,49.3,28.5,49.6z"/>
		<path class="st0" d="M52.5,48.6c-0.4-1.2-1.9-1.1-2.3-0.7c-0.3,0.2-0.7,0.9-0.3,1.5c0.4,0.6,1.8,0.8,1.8-0.2
			c0.1-0.9-0.7-0.3-0.4,0c0.3,0.4-0.4,0.6-0.7,0.4c-0.3-0.1-0.7-0.4-0.7-0.8c0-0.5,0.3-1.1,1.4-1c1,0.1,1.1,1.1,1,1.8
			c-0.2,0.9-1.6,1.5-2.6,1c-1-0.4-2.4-1.1-2.7-1.4c-0.2-0.4-0.3-0.8,0.1-1c0.4-0.3,0.7,0.1,0.7,0.3c0,0.2-0.2,0.3-0.3,0.3
			c-0.1,0,0.1-0.2-0.1-0.2c-0.2,0-0.2,0.2,0,0.3c0.2,0.1,0.8-0.1,0.5-0.7c-0.3-0.6-1.6-0.3-1.2,0.9c0,0-1.4-0.8-2.6-0.8
			c-0.8,0-1.2,0.5-1.3,0.9c-0.2,0-0.4-0.1-0.5-0.3c-0.5-0.5-2.5-1.3-4.2-0.3c-1,0.6-2.1,1.8-3.2,2.7c0,0,0,0,0,0
			c0-0.9,0.8-1.9,1.5-1.9c-0.7,0-1.5-1.1-1.5-2c0,0.9-0.8,2-1.5,2c0.7,0,1.4,1,1.5,2c-1-0.9-2.2-2-3.1-2.7c-1.7-1.1-3.6-0.3-4.2,0.3
			c-0.1,0.2-0.3,0.2-0.5,0.3c-0.1-0.5-0.4-0.9-1.3-0.9c-1.2,0-2.6,0.8-2.6,0.8c0.5-1.2-0.9-1.4-1.2-0.9c-0.3,0.6,0.3,0.8,0.5,0.7
			c0.2-0.1,0.2-0.3,0-0.3c-0.2,0,0,0.2-0.1,0.2c-0.1,0-0.3,0-0.3-0.3c0-0.2,0.3-0.6,0.7-0.3c0.4,0.3,0.3,0.7,0.1,1
			c-0.2,0.4-1.6,1-2.7,1.4c-1,0.4-2.5-0.2-2.6-1c-0.1-0.7,0-1.7,1-1.8c1-0.1,1.3,0.5,1.4,1c0,0.5-0.4,0.7-0.7,0.8
			c-0.3,0.1-1-0.1-0.7-0.4c0.3-0.4-0.5-1-0.4,0c0.1,0.9,1.5,0.8,1.8,0.2c0.4-0.6,0-1.3-0.3-1.5c-0.4-0.3-1.9-0.5-2.3,0.7
			C17,50,17.8,51,19,51.2c1.2,0.2,3.1-1.1,4.1-1.7c0.9-0.6,2.6-1.3,3.3-1c0.3,0.1,0.5,0.4,0.6,0.6c-0.4,0-0.8-0.1-0.8-0.1
			c0.1,0.6,0.5,0.8,0.7,0.9c0,0.1-0.1,0.1-0.1,0.2c-0.4,0.5-1.2,0.2-1.3-0.2c-0.1-0.3,0-0.2,0.3-0.5c0.3-0.3-0.4-0.8-0.5,0.2
			c-0.1,1,1.3,1.1,1.7,0.6c0,0,0.1-0.1,0.1-0.2c0.2,0,0.4,0,0.4,0c-0.1,3.4,3.2,2.8,3.3,1.8c0.1-1.1-0.8-1.3-0.8-1.3
			c0.2,1.2-1.4,1.2-1.8,0.2c-0.4-1,0.3-2.2,2.1-2.1c1.7,0.1,3,1.8,3,1.8c-1.2-0.5-1.7,0.6-1.3,0.8c0.4,0.2,0.6-0.1,0.6-0.5
			c0-0.4,0.6-0.3,1,0c0.2,0.2,0.4,0.4,1.2,1.1c-0.6,0.5-1.1,0.8-1.5,0.9c0,0-1.1,0.3-1.8-0.1c0,0,1.3,1.5,3.2,0.1
			c0.2-0.2,0.4-0.3,0.6-0.5c-0.3,0.5-1.4,3.1,0.1,5.3c1.5-2.2,0.3-4.7,0.1-5.3c0.2,0.1,0.4,0.3,0.6,0.5c1.9,1.4,3.2-0.1,3.2-0.1
			c-0.8,0.4-1.8,0.1-1.8,0.1c-0.4-0.1-1-0.5-1.5-0.9c0.8-0.7,1-0.9,1.2-1.1c0.3-0.3,0.9-0.3,1,0c0,0.4,0.2,0.6,0.6,0.5
			c0.4-0.2-0.1-1.3-1.3-0.8c0,0,1.2-1.6,3-1.8c1.7-0.1,2.5,1.1,2.1,2.1c-0.4,1-2,1-1.8-0.2c0,0-0.9,0.2-0.8,1.3
			c0.1,1.1,3.4,1.7,3.3-1.8c0,0,0.2,0,0.4,0c0,0.1,0.1,0.1,0.1,0.2c0.4,0.5,1.7,0.4,1.7-0.6c-0.1-1-0.7-0.5-0.5-0.2
			c0.3,0.3,0.3,0.2,0.3,0.5c-0.1,0.3-0.9,0.7-1.3,0.2c0,0-0.1-0.1-0.1-0.2c0.3-0.1,0.6-0.3,0.7-0.9c0,0-0.4,0.1-0.8,0.1
			c0.1-0.3,0.3-0.5,0.6-0.6c0.7-0.3,2.3,0.3,3.3,1c0.9,0.6,2.8,2,4.1,1.7C52.2,51,53,50,52.5,48.6z"/>
		<path class="st0" d="M42.6,48.5c0,0,0.4-0.7,4.1-0.8H41C41,47.6,42.4,47.9,42.6,48.5z"/>
		<path class="st0" d="M27.4,48.5c0.2-0.6,1.6-0.8,1.6-0.8h-5.7C27,47.8,27.4,48.5,27.4,48.5z"/>
	</g>
	<g>
		<g>
			<g>
				<g>
					<path class="st0" d="M48.3,20.3c0,0-2.1,1.3-4,1.3c-2.4,0-2.3-2.3-1.7-3c0.6-0.7,2.7-0.6,2.6,0.9c-0.1,1.5-1.1,0.8-0.7,0.3
						c0.4-0.5,0.5-0.3,0.4-0.8c-0.1-0.5-1.4-1-2-0.3c-0.6,0.7-0.4,1.9,0.6,2.4c1,0.5,3.6-0.5,5.1-1.5c1.4-1,4.4-3,6.3-2.7
						c1.9,0.4,3.2,1.8,2.4,4.1c-0.7,1.9-2.9,1.6-3.6,1.1c-0.5-0.4-1.1-1.4-0.5-2.4c0.6-1,2.7-1.2,2.9,0.3c0.1,1.4-1.1,0.5-0.6,0
						c0.5-0.6-0.5-0.9-1-0.7c-0.5,0.2-1.2,0.6-1.1,1.3c0.1,0.7,0.5,1.7,2.1,1.6c1.6-0.2,1.7-1.7,1.6-2.7c-0.2-1.3-2.5-2.3-4.1-1.6
						c-1.6,0.7-3.8,1.6-4.1,2.2c-0.4,0.5-0.5,1.2,0.2,1.6c0.6,0.4,1.1-0.2,1-0.5c0-0.3-0.4-0.4-0.5-0.4c-0.2,0,0.1,0.3-0.2,0.3
						c-0.3,0-0.4-0.3,0-0.5c0.4-0.2,1.3,0.2,0.8,1.1C49.7,22.5,47.6,22.1,48.3,20.3z"/>
				</g>
			</g>
			<path class="st0" d="M48.4,22.5h-8.9c0,0,2.1-0.3,2.5-1.3C42,21.2,42.6,22.3,48.4,22.5z"/>
		</g>
		<g>
			<g>
				<g>
					<path class="st0" d="M21.7,20.3c0,0,2.1,1.3,4,1.3c2.4,0,2.3-2.3,1.7-3c-0.6-0.7-2.7-0.6-2.6,0.9c0.1,1.5,1.1,0.8,0.7,0.3
						c-0.4-0.5-0.5-0.3-0.4-0.8c0.1-0.5,1.4-1,2-0.3c0.6,0.7,0.4,1.9-0.6,2.4c-1,0.5-3.6-0.5-5.1-1.5c-1.4-1-4.4-3-6.3-2.7
						c-1.9,0.4-3.2,1.8-2.4,4.1c0.7,1.9,2.9,1.6,3.6,1.1c0.5-0.4,1.1-1.4,0.5-2.4c-0.6-1-2.7-1.2-2.9,0.3c-0.1,1.4,1.1,0.5,0.6,0
						c-0.5-0.6,0.5-0.9,1-0.7c0.5,0.2,1.2,0.6,1.1,1.3c-0.1,0.7-0.5,1.7-2.1,1.6c-1.6-0.2-1.7-1.7-1.6-2.7c0.2-1.3,2.5-2.3,4.1-1.6
						c1.6,0.7,3.8,1.6,4.1,2.2c0.4,0.5,0.5,1.2-0.1,1.6c-0.6,0.4-1.1-0.2-1-0.5c0-0.3,0.4-0.4,0.5-0.4c0.2,0-0.1,0.3,0.2,0.3
						c0.3,0,0.4-0.3,0-0.5c-0.4-0.2-1.3,0.2-0.8,1.1C20.3,22.5,22.4,22.1,21.7,20.3z"/>
				</g>
			</g>
			<path class="st0" d="M21.6,22.5h8.9c0,0-2.1-0.3-2.5-1.3C28,21.2,27.4,22.3,21.6,22.5z"/>
		</g>
	</g>
	<g>
		<g>
			<path class="st0" d="M35.8,4.6c0,0.7-0.3,1.3-0.7,1.8c0.4,0.4,0.8,0.7,1.2,0.8c0.4,0.1,0.7,0,1-0.2c0.2-0.2,0.4-0.5,0.4-0.9
				c0-0.4-0.4-0.9-0.9-0.9c-0.2,0-0.6,0.1-0.7,0.6C36,6.1,36,6.3,36.1,6.5c0.1,0.1,0.4,0.2,0.6,0.1C36.9,6.5,37,6.4,37,6.3
				c0-0.1,0-0.3-0.1-0.4c-0.4-0.2-0.7,0.3-0.7,0.3c0.1-0.3,0.3-0.6,0.7-0.5c0.1,0,0.4,0.2,0.3,0.6c0,0.2-0.2,0.4-0.5,0.5
				c-0.3,0.1-0.5,0-0.7-0.2c-0.1-0.1-0.3-0.4-0.2-0.9c0.1-0.5,0.5-0.7,0.9-0.7c0.6,0,1,0.5,1,1c0,0.4-0.1,0.7-0.4,1
				c-0.3,0.3-0.7,0.4-1.1,0.4C35.9,7.3,35.4,7,35,6.6c-0.4,0.4-0.9,0.7-1.3,0.8c-0.4,0.1-0.8-0.1-1.1-0.4c-0.3-0.3-0.4-0.6-0.4-1
				c0-0.5,0.3-1,1-1c0.4,0,0.8,0.2,0.9,0.7c0.1,0.5-0.1,0.8-0.2,0.9c-0.2,0.2-0.5,0.3-0.7,0.2c-0.2-0.1-0.4-0.3-0.5-0.5
				c-0.1-0.5,0.2-0.6,0.3-0.6c0.4-0.1,0.6,0.1,0.7,0.5c0,0.1-0.2-0.4-0.7-0.3C32.9,5.9,33,6.1,33,6.2c0,0.2,0.1,0.3,0.3,0.3
				c0.2,0.1,0.4,0,0.6-0.1C34,6.3,34,6.1,34,5.8c-0.2-0.5-0.5-0.6-0.7-0.6c-0.6,0-0.9,0.5-0.9,0.9c0,0.4,0.1,0.7,0.4,0.9
				c0.2,0.2,0.6,0.3,1,0.3c0.4-0.1,0.8-0.3,1.2-0.8c-0.4-0.5-0.7-1.2-0.7-1.8c0-1.4,0.8-2.3,0.8-2.3C35.1,2.3,35.8,3.2,35.8,4.6z
				 M35.6,4.6c0-1-0.4-1.7-0.6-2c-0.2,0.3-0.6,1-0.6,2c0,0.6,0.2,1,0.6,1.4C35.4,5.6,35.6,5.2,35.6,4.6z"/>
		</g>
		<g>
			<g>
				<g>
					<path class="st0" d="M28.2,9.5c0,0,0.3-1.3,1-2c0.9-0.9,1.7,0,1.7,0.5c0.1,0.5-0.7,1.2-1.3,0.6c-0.5-0.6,0.1-0.7,0.1-0.4
						c0,0.3-0.1,0.3,0.2,0.5c0.2,0.2,0.9-0.1,0.8-0.6c0-0.5-0.6-0.9-1.1-0.7c-0.6,0.2-1.1,1.5-1.3,2.4c-0.2,0.9-0.5,2.7-1.3,3.3
						c-0.8,0.6-1.9,0.5-2.4-0.6c-0.5-1,0.5-1.7,0.9-1.8c0.3,0,0.9,0.1,1.1,0.7c0.2,0.6-0.6,1.5-1.1,1c-0.6-0.5,0.2-0.6,0.2-0.2
						c0,0.4,0.5,0.1,0.6-0.1c0.1-0.2,0.2-0.6-0.1-0.9c-0.3-0.2-0.8-0.4-1.4,0.2c-0.5,0.7,0,1.3,0.4,1.6c0.6,0.4,1.8-0.1,2.1-0.9
						c0.3-0.8,0.8-2,0.7-2.3c-0.1-0.3-0.3-0.6-0.7-0.5c-0.4,0.1-0.3,0.5-0.2,0.6c0.1,0.1,0.3,0,0.3-0.1c0.1-0.1-0.2-0.1-0.1-0.2
						c0.1-0.1,0.3,0,0.2,0.2c-0.1,0.2-0.5,0.4-0.7-0.1C26.8,9.2,27.7,8.6,28.2,9.5z"/>
				</g>
			</g>
			<g>
				<g>
					<path class="st0" d="M41.8,9.5c0,0-0.3-1.3-1-2c-0.9-0.9-1.7,0-1.7,0.5c-0.1,0.5,0.7,1.2,1.3,0.6c0.5-0.6-0.1-0.7-0.1-0.4
						c0,0.3,0.1,0.3-0.2,0.5c-0.2,0.2-0.9-0.1-0.8-0.6c0-0.5,0.6-0.9,1.1-0.7c0.6,0.2,1.1,1.5,1.3,2.4c0.2,0.9,0.5,2.7,1.3,3.3
						c0.8,0.6,1.9,0.5,2.4-0.6c0.5-1-0.5-1.7-0.9-1.8c-0.3,0-0.9,0.1-1.1,0.7c-0.2,0.6,0.6,1.5,1.1,1c0.6-0.5-0.2-0.6-0.2-0.2
						c0,0.4-0.5,0.1-0.6-0.1c-0.1-0.2-0.2-0.6,0.1-0.9c0.3-0.2,0.8-0.4,1.4,0.2c0.5,0.7,0,1.3-0.4,1.6c-0.6,0.4-1.8-0.1-2.1-0.9
						c-0.3-0.8-0.8-2-0.7-2.3c0.1-0.3,0.3-0.6,0.7-0.5c0.4,0.1,0.3,0.5,0.2,0.6c-0.1,0.1-0.3,0-0.3-0.1c-0.1-0.1,0.2-0.1,0.1-0.2
						c-0.1-0.1-0.3,0-0.2,0.2c0.1,0.2,0.5,0.4,0.7-0.1C43.2,9.2,42.3,8.6,41.8,9.5z"/>
				</g>
			</g>
		</g>
		<g>
			<path class="st0" d="M31.9,7.7c0-0.3-0.3-0.6-0.6-0.6c0.3,0,0.6-0.3,0.6-0.6c0,0.3,0.3,0.6,0.6,0.6C32.2,7.1,31.9,7.4,31.9,7.7z"
				/>
			<path class="st0" d="M38.1,7.7c0-0.3-0.3-0.6-0.6-0.6c0.3,0,0.6-0.3,0.6-0.6c0,0.3,0.3,0.6,0.6,0.6C38.4,7.1,38.1,7.5,38.1,7.7z"
				/>
		</g>
		<g>
			<path class="st0" d="M35,23.1c-4.4,0-7.9-3.6-7.9-7.9c0-4.4,3.6-7.9,7.9-7.9c4.4,0,7.9,3.6,7.9,7.9C42.9,19.6,39.4,23.1,35,23.1z
				 M35,7.6c-4.2,0-7.6,3.4-7.6,7.6c0,4.2,3.4,7.6,7.6,7.6c4.2,0,7.6-3.4,7.6-7.6C42.6,11,39.2,7.6,35,7.6z"/>
		</g>
	</g>
	<g>
		<path class="st0" d="M37.2,15.2c0-1.1-0.2-1.9-0.7-2.5c-0.4-0.5-1-0.8-1.6-0.8c-0.6,0-1.2,0.3-1.6,0.8c-0.5,0.6-0.7,1.4-0.7,2.5
			c0,1.3,0.3,2.2,1,2.8c0-0.2,0.1-0.4,0.3-0.6c0.3-0.2,0.6-0.3,1-0.3c0.4,0,0.8,0.1,1.1,0.3c0.2,0.2,0.3,0.3,0.3,0.5
			C36.9,17.5,37.2,16.6,37.2,15.2z"/>
		<path class="st0" d="M35,8.2c-3.9,0-7,3.1-7,7c0,3.9,3.1,7,7,7c3.9,0,7-3.1,7-7C42,11.3,38.9,8.2,35,8.2z M38.3,19.4
			c-0.3,0.2-0.6,0.4-1,0.4c-0.7,0-1.2-0.3-1.4-0.8c-0.3,0.1-0.7,0.2-1.1,0.2c-0.9,0-1.7-0.4-2.3-1.1c-0.6-0.7-0.9-1.6-0.9-2.8
			c0-1.2,0.3-2.1,0.9-2.8c0.6-0.7,1.3-1.1,2.3-1.1c0.9,0,1.6,0.3,2.2,0.9c0.7,0.7,1,1.7,1,3c0,1.6-0.5,2.8-1.6,3.4
			c0.1,0.4,0.4,0.6,0.9,0.6c0.2,0,0.4-0.1,0.7-0.2c0.1,0,0.2-0.1,0.2-0.1c0.2,0,0.2,0.1,0.2,0.2C38.5,19.2,38.4,19.3,38.3,19.4z"/>
		<path class="st0" d="M34.9,17.6c-0.2,0-0.5,0.1-0.6,0.2C34,17.9,34,18.1,34,18.3c0.3,0.2,0.6,0.2,0.9,0.2c0.3,0,0.6-0.1,0.9-0.3
			c0-0.2-0.1-0.3-0.3-0.5C35.3,17.7,35.1,17.6,34.9,17.6z"/>
	</g>
</g>
<g>
	<text transform="matrix(1 0 0 1 -91.3607 36.9212)" class="st0" style="font-family:'Vollkorn-Regular'; font-size:11.3237px;">PRESCOTT</text>
	<text transform="matrix(1 0 0 1 -78.8412 42.0746)" class="st0" style="font-family:'Vollkorn-Regular'; font-size:2.8668px;">LUXURY HOTEL</text>
	<g>
		<rect x="-89.4" y="24.2" class="st0" width="52.5" height="0.3"/>
		<rect x="-92.9" y="25" class="st0" width="59.5" height="0.3"/>
	</g>
	<g>
		<rect x="-84.4" y="46.2" class="st0" width="42.3" height="0.3"/>
		<rect x="-87.2" y="45.3" class="st0" width="48" height="0.3"/>
	</g>
	<g>
		<path class="st0" d="M-57.1,50.2c0.3-0.1,0.4-0.3,0.4-0.6c-0.1-0.3-0.3-0.4-0.6-0.4c-0.3,0.1-0.4,0.3-0.4,0.6
			C-57.6,50.1-57.4,50.3-57.1,50.2z"/>
		<path class="st0" d="M-69.7,49.6c-0.1,0.3,0.1,0.6,0.4,0.6c0.3,0.1,0.6-0.1,0.6-0.4c0.1-0.3-0.1-0.6-0.4-0.6
			C-69.3,49.1-69.6,49.3-69.7,49.6z"/>
		<path class="st0" d="M-45.7,48.6c-0.4-1.2-1.9-1.1-2.3-0.7c-0.3,0.2-0.7,0.9-0.3,1.5c0.4,0.6,1.8,0.8,1.8-0.2
			c0.1-0.9-0.7-0.3-0.4,0c0.3,0.4-0.4,0.6-0.7,0.4c-0.3-0.1-0.7-0.4-0.7-0.8c0-0.5,0.3-1.1,1.4-1c1,0.1,1.1,1.1,1,1.8
			c-0.2,0.9-1.6,1.5-2.6,1c-1-0.4-2.4-1.1-2.7-1.4c-0.2-0.4-0.3-0.8,0.1-1c0.4-0.3,0.7,0.1,0.7,0.3c0,0.2-0.2,0.3-0.3,0.3
			c-0.1,0,0.1-0.2-0.1-0.2c-0.2,0-0.2,0.2,0,0.3c0.2,0.1,0.8-0.1,0.5-0.7c-0.3-0.6-1.6-0.3-1.2,0.9c0,0-1.4-0.8-2.6-0.8
			c-0.8,0-1.2,0.5-1.3,0.9c-0.2,0-0.4-0.1-0.5-0.3c-0.5-0.5-2.5-1.3-4.2-0.3c-1,0.6-2.1,1.8-3.2,2.7c0,0,0,0,0,0
			c0-0.9,0.8-1.9,1.5-1.9c-0.7,0-1.5-1.1-1.5-2c0,0.9-0.8,2-1.5,2c0.7,0,1.4,1,1.5,2c-1-0.9-2.2-2-3.1-2.7c-1.7-1.1-3.6-0.3-4.2,0.3
			c-0.1,0.2-0.3,0.2-0.5,0.3c-0.1-0.5-0.4-0.9-1.3-0.9c-1.2,0-2.6,0.8-2.6,0.8c0.5-1.2-0.9-1.4-1.2-0.9c-0.3,0.6,0.3,0.8,0.5,0.7
			c0.2-0.1,0.2-0.3,0-0.3c-0.2,0,0,0.2-0.1,0.2c-0.1,0-0.3,0-0.3-0.3c0-0.2,0.3-0.6,0.7-0.3c0.4,0.3,0.3,0.7,0.1,1
			c-0.2,0.4-1.6,1-2.7,1.4c-1,0.4-2.5-0.2-2.6-1c-0.1-0.7,0-1.7,1-1.8c1-0.1,1.3,0.5,1.4,1c0,0.5-0.4,0.7-0.7,0.8
			c-0.3,0.1-1-0.1-0.7-0.4c0.3-0.4-0.5-1-0.4,0c0.1,0.9,1.5,0.8,1.8,0.2c0.4-0.6,0-1.3-0.3-1.5c-0.4-0.3-1.9-0.5-2.3,0.7
			c-0.5,1.5,0.3,2.4,1.5,2.7c1.2,0.2,3.1-1.1,4.1-1.7c0.9-0.6,2.6-1.3,3.3-1c0.3,0.1,0.5,0.4,0.6,0.6c-0.4,0-0.8-0.1-0.8-0.1
			c0.1,0.6,0.5,0.8,0.7,0.9c0,0.1-0.1,0.1-0.1,0.2c-0.4,0.5-1.2,0.2-1.3-0.2c-0.1-0.3,0-0.2,0.3-0.5c0.3-0.3-0.4-0.8-0.5,0.2
			c-0.1,1,1.3,1.1,1.7,0.6c0,0,0.1-0.1,0.1-0.2c0.2,0,0.4,0,0.4,0c-0.1,3.4,3.2,2.8,3.3,1.8c0.1-1.1-0.8-1.3-0.8-1.3
			c0.2,1.2-1.4,1.2-1.8,0.2c-0.4-1,0.3-2.2,2.1-2.1c1.7,0.1,3,1.8,3,1.8c-1.2-0.5-1.7,0.6-1.3,0.8c0.4,0.2,0.6-0.1,0.6-0.5
			c0-0.4,0.6-0.3,1,0c0.2,0.2,0.4,0.4,1.2,1.1c-0.6,0.5-1.1,0.8-1.5,0.9c0,0-1.1,0.3-1.8-0.1c0,0,1.3,1.5,3.2,0.1
			c0.2-0.2,0.4-0.3,0.6-0.5c-0.3,0.5-1.4,3.1,0.1,5.3c1.5-2.2,0.3-4.7,0.1-5.3c0.2,0.1,0.4,0.3,0.6,0.5c1.9,1.4,3.2-0.1,3.2-0.1
			c-0.8,0.4-1.8,0.1-1.8,0.1c-0.4-0.1-1-0.5-1.5-0.9c0.8-0.7,1-0.9,1.2-1.1c0.3-0.3,0.9-0.3,1,0c0,0.4,0.2,0.6,0.6,0.5
			c0.4-0.2-0.1-1.3-1.3-0.8c0,0,1.2-1.6,3-1.8c1.7-0.1,2.5,1.1,2.1,2.1c-0.4,1-2,1-1.8-0.2c0,0-0.9,0.2-0.8,1.3
			c0.1,1.1,3.4,1.7,3.3-1.8c0,0,0.2,0,0.4,0c0,0.1,0.1,0.1,0.1,0.2c0.4,0.5,1.7,0.4,1.7-0.6c-0.1-1-0.7-0.5-0.5-0.2
			c0.3,0.3,0.3,0.2,0.3,0.5c-0.1,0.3-0.9,0.7-1.3,0.2c0,0-0.1-0.1-0.1-0.2c0.3-0.1,0.6-0.3,0.7-0.9c0,0-0.4,0.1-0.8,0.1
			c0.1-0.3,0.3-0.5,0.6-0.6c0.7-0.3,2.3,0.3,3.3,1c0.9,0.6,2.8,2,4.1,1.7C-46,51-45.1,50-45.7,48.6z"/>
		<path class="st0" d="M-55.6,48.5c0,0,0.4-0.7,4.1-0.8h-5.7C-57.2,47.6-55.8,47.9-55.6,48.5z"/>
		<path class="st0" d="M-70.8,48.5c0.2-0.6,1.6-0.8,1.6-0.8H-75C-71.2,47.8-70.8,48.5-70.8,48.5z"/>
	</g>
	<g>
		<g>
			<g>
				<g>
					<path class="st0" d="M-49.9,20.3c0,0-2.1,1.3-4,1.3c-2.4,0-2.3-2.3-1.7-3c0.6-0.7,2.7-0.6,2.6,0.9c-0.1,1.5-1.1,0.8-0.7,0.3
						c0.4-0.5,0.5-0.3,0.4-0.8c-0.1-0.5-1.4-1-2-0.3c-0.6,0.7-0.4,1.9,0.6,2.4c1,0.5,3.6-0.5,5.1-1.5c1.4-1,4.4-3,6.3-2.7
						c1.9,0.4,3.2,1.8,2.4,4.1c-0.7,1.9-2.9,1.6-3.6,1.1c-0.5-0.4-1.1-1.4-0.5-2.4c0.6-1,2.7-1.2,2.9,0.3c0.1,1.4-1.1,0.5-0.6,0
						c0.5-0.6-0.5-0.9-1-0.7c-0.5,0.2-1.2,0.6-1.1,1.3c0.1,0.7,0.5,1.7,2.1,1.6c1.6-0.2,1.7-1.7,1.6-2.7c-0.2-1.3-2.5-2.3-4.1-1.6
						c-1.6,0.7-3.8,1.6-4.1,2.2c-0.4,0.5-0.5,1.2,0.2,1.6c0.6,0.4,1.1-0.2,1-0.5c0-0.3-0.4-0.4-0.5-0.4c-0.2,0,0.1,0.3-0.2,0.3
						c-0.3,0-0.4-0.3,0-0.5c0.4-0.2,1.3,0.2,0.8,1.1C-48.5,22.5-50.6,22.1-49.9,20.3z"/>
				</g>
			</g>
			<path class="st0" d="M-49.8,22.5h-8.9c0,0,2.1-0.3,2.5-1.3C-56.2,21.2-55.6,22.3-49.8,22.5z"/>
		</g>
		<g>
			<g>
				<g>
					<path class="st0" d="M-76.5,20.3c0,0,2.1,1.3,4,1.3c2.4,0,2.3-2.3,1.7-3c-0.6-0.7-2.7-0.6-2.6,0.9c0.1,1.5,1.1,0.8,0.7,0.3
						c-0.4-0.5-0.5-0.3-0.4-0.8c0.1-0.5,1.4-1,2-0.3c0.6,0.7,0.4,1.9-0.6,2.4c-1,0.5-3.6-0.5-5.1-1.5c-1.4-1-4.4-3-6.3-2.7
						c-1.9,0.4-3.2,1.8-2.4,4.1c0.7,1.9,2.9,1.6,3.6,1.1c0.5-0.4,1.1-1.4,0.5-2.4c-0.6-1-2.7-1.2-2.9,0.3c-0.1,1.4,1.1,0.5,0.6,0
						c-0.5-0.6,0.5-0.9,1-0.7c0.5,0.2,1.2,0.6,1.1,1.3c-0.1,0.7-0.5,1.7-2.1,1.6c-1.6-0.2-1.7-1.7-1.6-2.7c0.2-1.3,2.5-2.3,4.1-1.6
						c1.6,0.7,3.8,1.6,4.1,2.2c0.4,0.5,0.5,1.2-0.1,1.6c-0.6,0.4-1.1-0.2-1-0.5c0-0.3,0.4-0.4,0.5-0.4c0.2,0-0.1,0.3,0.2,0.3
						c0.3,0,0.4-0.3,0-0.5c-0.4-0.2-1.3,0.2-0.8,1.1C-77.8,22.5-75.8,22.1-76.5,20.3z"/>
				</g>
			</g>
			<path class="st0" d="M-76.6,22.5h8.9c0,0-2.1-0.3-2.5-1.3C-70.1,21.2-70.8,22.3-76.6,22.5z"/>
		</g>
	</g>
	<g>
		<g>
			<path class="st0" d="M-62.4,4.6c0,0.7-0.3,1.3-0.7,1.8c0.4,0.4,0.8,0.7,1.2,0.8c0.4,0.1,0.7,0,1-0.2c0.2-0.2,0.4-0.5,0.4-0.9
				c0-0.4-0.4-0.9-0.9-0.9c-0.2,0-0.6,0.1-0.7,0.6c-0.1,0.3-0.1,0.5,0.1,0.7c0.1,0.1,0.4,0.2,0.6,0.1c0.2-0.1,0.3-0.2,0.3-0.3
				c0-0.1,0-0.3-0.1-0.4C-61.7,5.7-62,6.2-62,6.1c0.1-0.3,0.3-0.6,0.7-0.5c0.1,0,0.4,0.2,0.3,0.6c0,0.2-0.2,0.4-0.5,0.5
				c-0.3,0.1-0.5,0-0.7-0.2c-0.1-0.1-0.3-0.4-0.2-0.9c0.1-0.5,0.5-0.7,0.9-0.7c0.6,0,1,0.5,1,1c0,0.4-0.1,0.7-0.4,1
				c-0.3,0.3-0.7,0.4-1.1,0.4c-0.4-0.1-0.9-0.4-1.3-0.8c-0.4,0.4-0.9,0.7-1.3,0.8c-0.4,0.1-0.8-0.1-1.1-0.4C-65.9,6.8-66,6.4-66,6
				c0-0.5,0.3-1,1-1c0.4,0,0.8,0.2,0.9,0.7c0.1,0.5-0.1,0.8-0.2,0.9c-0.2,0.2-0.5,0.3-0.7,0.2c-0.2-0.1-0.4-0.3-0.5-0.5
				c-0.1-0.5,0.2-0.6,0.3-0.6c0.4-0.1,0.6,0.1,0.7,0.5c0,0.1-0.2-0.4-0.7-0.3c-0.2,0.1-0.2,0.3-0.1,0.4c0,0.2,0.1,0.3,0.3,0.3
				c0.2,0.1,0.4,0,0.6-0.1c0.1-0.1,0.2-0.4,0.1-0.7c-0.2-0.5-0.5-0.6-0.7-0.6c-0.6,0-0.9,0.5-0.9,0.9c0,0.4,0.1,0.7,0.4,0.9
				c0.2,0.2,0.6,0.3,1,0.3c0.4-0.1,0.8-0.3,1.2-0.8C-63.7,5.9-64,5.3-64,4.6c0-1.4,0.8-2.3,0.8-2.3C-63.1,2.3-62.4,3.2-62.4,4.6z
				 M-62.6,4.6c0-1-0.4-1.7-0.6-2c-0.2,0.3-0.6,1-0.6,2c0,0.6,0.2,1,0.6,1.4C-62.8,5.6-62.6,5.2-62.6,4.6z"/>
		</g>
		<g>
			<g>
				<g>
					<path class="st0" d="M-70,9.5c0,0,0.3-1.3,1-2c0.9-0.9,1.7,0,1.7,0.5c0.1,0.5-0.7,1.2-1.3,0.6c-0.5-0.6,0.1-0.7,0.1-0.4
						c0,0.3-0.1,0.3,0.2,0.5c0.2,0.2,0.9-0.1,0.8-0.6c0-0.5-0.6-0.9-1.1-0.7c-0.6,0.2-1.1,1.5-1.3,2.4c-0.2,0.9-0.5,2.7-1.3,3.3
						c-0.8,0.6-1.9,0.5-2.4-0.6c-0.5-1,0.5-1.7,0.9-1.8c0.3,0,0.9,0.1,1.1,0.7c0.2,0.6-0.6,1.5-1.1,1c-0.6-0.5,0.2-0.6,0.2-0.2
						c0,0.4,0.5,0.1,0.6-0.1c0.1-0.2,0.2-0.6-0.1-0.9c-0.3-0.2-0.8-0.4-1.4,0.2c-0.5,0.7,0,1.3,0.4,1.6c0.6,0.4,1.8-0.1,2.1-0.9
						c0.3-0.8,0.8-2,0.7-2.3c-0.1-0.3-0.3-0.6-0.7-0.5c-0.4,0.1-0.3,0.5-0.2,0.6c0.1,0.1,0.3,0,0.3-0.1c0.1-0.1-0.2-0.1-0.1-0.2
						c0.1-0.1,0.3,0,0.2,0.2c-0.1,0.2-0.5,0.4-0.7-0.1C-71.3,9.2-70.4,8.6-70,9.5z"/>
				</g>
			</g>
			<g>
				<g>
					<path class="st0" d="M-56.3,9.5c0,0-0.3-1.3-1-2C-58.2,6.7-59,7.5-59,8c-0.1,0.5,0.7,1.2,1.3,0.6c0.5-0.6-0.1-0.7-0.1-0.4
						c0,0.3,0.1,0.3-0.2,0.5c-0.2,0.2-0.9-0.1-0.8-0.6c0-0.5,0.6-0.9,1.1-0.7c0.6,0.2,1.1,1.5,1.3,2.4c0.2,0.9,0.5,2.7,1.3,3.3
						c0.8,0.6,1.9,0.5,2.4-0.6c0.5-1-0.5-1.7-0.9-1.8c-0.3,0-0.9,0.1-1.1,0.7c-0.2,0.6,0.6,1.5,1.1,1c0.6-0.5-0.2-0.6-0.2-0.2
						c0,0.4-0.5,0.1-0.6-0.1c-0.1-0.2-0.2-0.6,0.1-0.9c0.3-0.2,0.8-0.4,1.4,0.2c0.5,0.7,0,1.3-0.4,1.6c-0.6,0.4-1.8-0.1-2.1-0.9
						c-0.3-0.8-0.8-2-0.7-2.3c0.1-0.3,0.3-0.6,0.7-0.5c0.4,0.1,0.3,0.5,0.2,0.6c-0.1,0.1-0.3,0-0.3-0.1c-0.1-0.1,0.2-0.1,0.1-0.2
						c-0.1-0.1-0.3,0-0.2,0.2c0.1,0.2,0.5,0.4,0.7-0.1C-55,9.2-55.9,8.6-56.3,9.5z"/>
				</g>
			</g>
		</g>
		<g>
			<path class="st0" d="M-66.3,7.7c0-0.3-0.3-0.6-0.6-0.6c0.3,0,0.6-0.3,0.6-0.6c0,0.3,0.3,0.6,0.6,0.6C-66,7.1-66.3,7.4-66.3,7.7z"
				/>
			<path class="st0" d="M-60.1,7.7c0-0.3-0.3-0.6-0.6-0.6c0.3,0,0.6-0.3,0.6-0.6c0,0.3,0.3,0.6,0.6,0.6C-59.8,7.1-60.1,7.5-60.1,7.7
				z"/>
		</g>
		<g>
			<path class="st0" d="M-63.2,23.1c-4.4,0-7.9-3.6-7.9-7.9c0-4.4,3.6-7.9,7.9-7.9c4.4,0,7.9,3.6,7.9,7.9
				C-55.3,19.6-58.8,23.1-63.2,23.1z M-63.2,7.6c-4.2,0-7.6,3.4-7.6,7.6c0,4.2,3.4,7.6,7.6,7.6c4.2,0,7.6-3.4,7.6-7.6
				C-55.6,11-59,7.6-63.2,7.6z"/>
		</g>
	</g>
	<g>
		<path class="st0" d="M-61,15.2c0-1.1-0.2-1.9-0.7-2.5c-0.4-0.5-1-0.8-1.6-0.8c-0.6,0-1.2,0.3-1.6,0.8c-0.5,0.6-0.7,1.4-0.7,2.5
			c0,1.3,0.3,2.2,1,2.8c0-0.2,0.1-0.4,0.3-0.6c0.3-0.2,0.6-0.3,1-0.3c0.4,0,0.8,0.1,1.1,0.3c0.2,0.2,0.3,0.3,0.3,0.5
			C-61.3,17.5-61,16.6-61,15.2z"/>
		<path class="st0" d="M-63.2,8.2c-3.9,0-7,3.1-7,7c0,3.9,3.1,7,7,7c3.9,0,7-3.1,7-7C-56.2,11.3-59.3,8.2-63.2,8.2z M-59.9,19.4
			c-0.3,0.2-0.6,0.4-1,0.4c-0.7,0-1.2-0.3-1.4-0.8c-0.3,0.1-0.7,0.2-1.1,0.2c-0.9,0-1.7-0.4-2.3-1.1c-0.6-0.7-0.9-1.6-0.9-2.8
			c0-1.2,0.3-2.1,0.9-2.8c0.6-0.7,1.3-1.1,2.3-1.1c0.9,0,1.6,0.3,2.2,0.9c0.7,0.7,1,1.7,1,3c0,1.6-0.5,2.8-1.6,3.4
			c0.1,0.4,0.4,0.6,0.9,0.6c0.2,0,0.4-0.1,0.7-0.2c0.1,0,0.2-0.1,0.2-0.1c0.2,0,0.2,0.1,0.2,0.2C-59.7,19.2-59.8,19.3-59.9,19.4z"/>
		<path class="st0" d="M-63.3,17.6c-0.2,0-0.5,0.1-0.6,0.2c-0.2,0.1-0.3,0.3-0.3,0.5c0.3,0.2,0.6,0.2,0.9,0.2c0.3,0,0.6-0.1,0.9-0.3
			c0-0.2-0.1-0.3-0.3-0.5C-62.8,17.7-63.1,17.6-63.3,17.6z"/>
	</g>
</g>
</svg>
